<svg width="26" height="27" viewBox="0 0 26 27" fill="none" xmlns="http://www.w3.org/2000/svg">
<path fill-rule="evenodd" clip-rule="evenodd" d="M20.8749 13.7688C21.0754 13.5837 21.3349 13.4824 21.6032 13.4846C21.7572 13.4859 21.9092 13.5214 22.049 13.5885C22.1888 13.6556 22.3132 13.753 22.4139 13.874C22.5146 13.995 22.5893 14.1369 22.6331 14.2903C22.6768 14.4437 22.6885 14.605 22.6675 14.7634C22.0668 19.7546 17.9598 23.625 13 23.625C10.2326 23.625 7.73031 22.4161 5.95622 20.4851L4.17464 22.3352C3.96339 22.5546 3.61994 22.5546 3.40869 22.3352C3.30361 22.225 3.25 22.0815 3.25 21.9375V16.875C3.25 16.5766 3.36414 16.2905 3.5673 16.0795C3.77047 15.8685 4.04602 15.75 4.33333 15.75H9.20833C9.347 15.75 9.48623 15.8045 9.59131 15.9148C9.80256 16.1342 9.80256 16.4908 9.59131 16.7102L7.49023 18.8921C8.87062 20.4177 10.8178 21.375 13 21.375C16.878 21.375 20.0502 18.3717 20.5177 14.4866C20.5471 14.2096 20.6744 13.9539 20.8749 13.7688Z" fill="#2D8DCD"/>
<path d="M13 3.375C8.04017 3.375 3.93315 7.24544 3.33252 12.2366C3.31115 12.385 3.31861 12.5364 3.35446 12.6819C3.3903 12.8273 3.45381 12.9638 3.54124 13.0834C3.62867 13.2029 3.73825 13.3031 3.86353 13.378C3.98881 13.4529 4.12726 13.501 4.27072 13.5194C4.41417 13.5379 4.55974 13.5264 4.69884 13.4855C4.83795 13.4447 4.96777 13.3754 5.08067 13.2816C5.19358 13.1879 5.28727 13.0716 5.35624 12.9397C5.42521 12.8077 5.46806 12.6628 5.48226 12.5134C5.94979 8.62831 9.122 5.625 13 5.625C15.1822 5.625 17.1331 6.58103 18.5119 8.10571L16.4087 10.2898C16.1974 10.5092 16.1974 10.8658 16.4087 11.0852C16.5138 11.1955 16.653 11.25 16.7917 11.25H21.6667C21.954 11.25 22.2295 11.1315 22.4327 10.9205C22.6359 10.7095 22.75 10.4234 22.75 10.125V5.0625C22.75 4.9185 22.6964 4.77504 22.5913 4.66479C22.3801 4.44542 22.0366 4.44542 21.8254 4.66479L20.0459 6.5127C18.271 4.58013 15.7685 3.375 13 3.375Z" fill="#2D8DCD"/>
</svg>
