<svg width="108" height="61" viewBox="0 0 108 61" fill="none" xmlns="//www.w3.org/2000/svg">
<rect x="0.5" y="0.5" width="107" height="59.8155" rx="11.5" fill="white" stroke="#EDF0F6"/>
<g clip-path="url(#clip0_204_676)">
<path d="M38.1256 25.572V35.1569H36.335V25.572H38.1256Z" fill="#103B5E"/>
<path d="M42.7526 29.6211L46.1246 25.572H48.3839L44.5097 29.9972L48.5931 35.1569H46.225L42.9701 30.863L42.7609 31.0816V35.1657H40.9619V25.572H42.7526V29.6211Z" fill="#103B5E"/>
<path d="M56.3839 33.1455H52.6855L51.8739 35.1569H49.9326L53.882 25.572H55.2878L59.1284 35.1569H57.204L56.3839 33.1455ZM55.8651 31.6151L54.5598 28.1694L53.2545 31.6151H55.8651Z" fill="#103B5E"/>
<path d="M63.3287 25.572C64.6089 25.572 65.7217 25.712 66.7426 26.5078C67.8555 27.3823 68.4998 28.7816 68.4998 30.3732C68.4998 31.9649 67.8638 33.3466 66.6589 34.2386C65.5879 35.0258 64.5838 35.1569 63.3036 35.1569H60.9355V25.572H63.3287ZM62.7262 33.5478H63.2785C63.7303 33.5478 64.726 33.5216 65.5209 32.9181C66.2489 32.3759 66.6589 31.3965 66.6589 30.3732C66.6589 29.3675 66.2572 28.388 65.5293 27.8109C64.7846 27.2337 63.8809 27.1812 63.2701 27.1812H62.7178V33.5478H62.7262Z" fill="#86C2EB"/>
<path d="M75.9546 27.1812H72.6578V29.3238H75.8207V30.9329H72.6578V33.5478H75.9546V35.1569H70.8672V25.572H75.9546V27.1812Z" fill="#86C2EB"/>
<path d="M93.3421 27.1812V35.1569H91.5515V27.1812H89.4932V25.572H95.4089V27.1812H93.3421Z" fill="#86C2EB"/>
<path d="M24.3691 35.1569V25.572H25.5657L31.6823 31.9649V25.572H33.473V35.1569H32.2848L26.1681 28.7466V35.1569H24.3691Z" fill="#103B5E"/>
<path d="M78.5566 35.1569V25.572H79.7536L85.87 31.9649V25.572H87.6606V35.1569H86.4727L80.3556 28.7466V35.1569H78.5566Z" fill="#86C2EB"/>
<path fill-rule="evenodd" clip-rule="evenodd" d="M21.55 43.5962C21.0898 43.3163 20.9308 42.6954 21.1985 42.2144C21.4663 41.7334 22.0604 41.5673 22.5206 41.8471C22.9808 42.1269 23.1398 42.7479 22.872 43.2289C22.6126 43.7099 22.0185 43.876 21.55 43.5962Z" fill="#86C2EB"/>
<path fill-rule="evenodd" clip-rule="evenodd" d="M29.0056 51.2833C28.3529 51.2833 27.8174 50.7324 27.8174 50.0415C27.8174 49.3594 28.3445 48.7997 29.0056 48.7997C29.6582 48.7997 30.1937 49.3506 30.1937 50.0415C30.1853 50.7324 29.6582 51.2833 29.0056 51.2833Z" fill="#86C2EB"/>
<path fill-rule="evenodd" clip-rule="evenodd" d="M16.6719 30.382C16.6719 29.8835 17.0568 29.4812 17.5337 29.4812C18.0107 29.4812 18.3956 29.8835 18.3956 30.382C18.3956 30.8805 18.0107 31.2828 17.5337 31.2828C17.0568 31.2828 16.6719 30.8805 16.6719 30.382Z" fill="#86C2EB"/>
<path fill-rule="evenodd" clip-rule="evenodd" d="M14.3203 30.382C14.3203 29.8223 14.7554 29.3676 15.2909 29.3676C15.8265 29.3676 16.2616 29.8223 16.2616 30.382C16.2616 30.9417 15.8265 31.3965 15.2909 31.3965C14.7471 31.3965 14.3203 30.9417 14.3203 30.382Z" fill="#86C2EB"/>
<path fill-rule="evenodd" clip-rule="evenodd" d="M11.7432 30.382C11.7432 29.761 12.2285 29.2538 12.8226 29.2538C13.4167 29.2538 13.902 29.761 13.902 30.382C13.902 31.0029 13.4167 31.5101 12.8226 31.5101C12.2285 31.5014 11.7432 31.0029 11.7432 30.382Z" fill="#86C2EB"/>
<path fill-rule="evenodd" clip-rule="evenodd" d="M17.0987 27.0325C17.2242 26.5515 17.6928 26.2629 18.153 26.3941C18.6132 26.5253 18.8893 27.015 18.7638 27.496C18.6383 27.977 18.1697 28.2656 17.7095 28.1344C17.2493 28.0032 16.9732 27.5135 17.0987 27.0325Z" fill="#86C2EB"/>
<path fill-rule="evenodd" clip-rule="evenodd" d="M14.8227 26.3941C14.9649 25.8519 15.4921 25.537 16.0109 25.677C16.5296 25.8256 16.8309 26.3766 16.697 26.9188C16.5547 27.461 16.0276 27.7758 15.5088 27.6359C14.99 27.4873 14.6804 26.9363 14.8227 26.3941Z" fill="#86C2EB"/>
<path fill-rule="evenodd" clip-rule="evenodd" d="M12.3367 25.6944C12.4874 25.091 13.0815 24.7412 13.6588 24.8986C14.2362 25.056 14.5709 25.6769 14.4202 26.2803C14.2696 26.8838 13.6755 27.2336 13.0982 27.0762C12.5208 26.9187 12.1778 26.2979 12.3367 25.6944Z" fill="#86C2EB"/>
<path fill-rule="evenodd" clip-rule="evenodd" d="M17.0987 33.7227C16.9732 33.2417 17.2493 32.7519 17.7095 32.6208C18.1697 32.4896 18.6383 32.7782 18.7638 33.2592C18.8893 33.7402 18.6132 34.2299 18.153 34.3611C17.6928 34.4923 17.2158 34.2037 17.0987 33.7227Z" fill="#86C2EB"/>
<path fill-rule="evenodd" clip-rule="evenodd" d="M14.8227 34.3611C14.6804 33.8189 14.99 33.268 15.5088 33.1193C16.0276 32.9706 16.5547 33.2942 16.697 33.8364C16.8392 34.3786 16.5296 34.9296 16.0109 35.0783C15.4921 35.2269 14.9566 34.9033 14.8227 34.3611Z" fill="#86C2EB"/>
<path fill-rule="evenodd" clip-rule="evenodd" d="M18.3287 23.9105C18.563 23.482 19.0901 23.3333 19.5085 23.5782C19.9185 23.823 20.0608 24.374 19.8265 24.8113C19.5922 25.2398 19.065 25.3884 18.6466 25.1436C18.2366 24.8987 18.0944 24.3477 18.3287 23.9105Z" fill="#86C2EB"/>
<path fill-rule="evenodd" clip-rule="evenodd" d="M16.2864 22.6773C16.0187 23.1583 16.1776 23.7792 16.6379 24.059C17.0981 24.3389 17.6922 24.1727 17.9599 23.6918C18.2277 23.2108 18.0687 22.5899 17.6085 22.31C17.1483 22.0301 16.5542 22.1963 16.2864 22.6773Z" fill="#86C2EB"/>
<path fill-rule="evenodd" clip-rule="evenodd" d="M14.0606 21.3393C14.3618 20.7971 15.0145 20.6134 15.5333 20.9283C16.0521 21.2431 16.2278 21.9252 15.9266 22.4674C15.6253 23.0096 14.9727 23.1933 14.4539 22.8785C13.9435 22.5637 13.7677 21.8728 14.0606 21.3393Z" fill="#86C2EB"/>
<path fill-rule="evenodd" clip-rule="evenodd" d="M22.8631 19.1792C23.2731 18.9343 23.8003 19.0742 24.043 19.5115C24.2772 19.94 24.1434 20.491 23.725 20.7446C23.315 20.9895 22.7878 20.8495 22.5451 20.4123C22.3025 19.9837 22.4447 19.4328 22.8631 19.1792Z" fill="#86C2EB"/>
<path fill-rule="evenodd" clip-rule="evenodd" d="M25.8424 17.8848C26.3026 17.7536 26.7712 18.0423 26.8967 18.5233C27.0222 19.0042 26.7461 19.494 26.2859 19.6251C25.8257 19.7564 25.3571 19.4677 25.2316 18.9867C25.1144 18.5145 25.3822 18.016 25.8424 17.8848Z" fill="#86C2EB"/>
<path fill-rule="evenodd" clip-rule="evenodd" d="M25.231 15.5061C25.7498 15.3575 26.2769 15.681 26.4192 16.2232C26.5614 16.7655 26.2518 17.3164 25.7331 17.4651C25.2143 17.6137 24.6872 17.2902 24.5449 16.7479C24.411 16.2058 24.7206 15.6548 25.231 15.5061Z" fill="#86C2EB"/>
<path fill-rule="evenodd" clip-rule="evenodd" d="M24.5708 12.9087C25.1482 12.7513 25.7339 13.1011 25.8929 13.7046C26.0435 14.308 25.7088 14.9202 25.1314 15.0863C24.5541 15.2437 23.9683 14.8939 23.8094 14.2905C23.6504 13.6871 23.9934 13.0749 24.5708 12.9087Z" fill="#86C2EB"/>
<path fill-rule="evenodd" clip-rule="evenodd" d="M11.6929 40.8502C11.3665 40.2555 11.559 39.5034 12.128 39.1623C12.697 38.8213 13.4166 39.0224 13.7429 39.6171C14.0692 40.2118 13.8768 40.9639 13.3078 41.305C12.7472 41.646 12.0192 41.4448 11.6929 40.8502Z" fill="#86C2EB"/>
<path fill-rule="evenodd" clip-rule="evenodd" d="M18.3285 36.8447C18.0942 36.4162 18.2281 35.8653 18.6465 35.6117C19.0565 35.3668 19.5836 35.5067 19.8263 35.944C20.0606 36.3725 19.9267 36.9235 19.5083 37.1771C19.0983 37.422 18.5712 37.2733 18.3285 36.8447Z" fill="#86C2EB"/>
<path fill-rule="evenodd" clip-rule="evenodd" d="M16.2864 38.0779C16.5542 38.5589 17.1483 38.725 17.6085 38.4452C18.0687 38.1654 18.2277 37.5444 17.9599 37.0634C17.6922 36.5824 17.0981 36.4163 16.6379 36.6961C16.1776 36.976 16.0187 37.5881 16.2864 38.0779Z" fill="#86C2EB"/>
<path fill-rule="evenodd" clip-rule="evenodd" d="M14.0606 39.4246C14.3618 39.9668 15.0145 40.1505 15.5333 39.8356C16.0521 39.5208 16.2278 38.8386 15.9266 38.2964C15.6253 37.7543 14.9727 37.5706 14.4539 37.8854C13.9435 38.1915 13.7677 38.8824 14.0606 39.4246Z" fill="#86C2EB"/>
<path fill-rule="evenodd" clip-rule="evenodd" d="M14.8813 45.1878C14.4211 44.7069 14.4211 43.9197 14.8813 43.4387C15.3415 42.9578 16.0946 42.9578 16.5548 43.4387C17.015 43.9197 17.015 44.7069 16.5548 45.1878C16.0946 45.6688 15.3415 45.6688 14.8813 45.1878Z" fill="#86C2EB"/>
<path fill-rule="evenodd" clip-rule="evenodd" d="M18.6291 41.2611C19.0056 41.6547 19.6248 41.6547 20.0013 41.2611C20.3778 40.8676 20.3778 40.2205 20.0013 39.8269C19.6248 39.4333 19.0056 39.4333 18.6291 39.8269C18.2526 40.2292 18.2526 40.8676 18.6291 41.2611Z" fill="#86C2EB"/>
<path fill-rule="evenodd" clip-rule="evenodd" d="M16.8138 43.1676C17.2322 43.6049 17.9183 43.6049 18.3366 43.1676C18.755 42.7304 18.755 42.0132 18.3366 41.576C17.9183 41.1387 17.2322 41.1387 16.8138 41.576C16.3954 42.0132 16.3954 42.7304 16.8138 43.1676Z" fill="#86C2EB"/>
<path fill-rule="evenodd" clip-rule="evenodd" d="M22.8631 41.576C23.2731 41.8209 23.8003 41.681 24.043 41.2437C24.2772 40.8152 24.1434 40.2642 23.725 40.0106C23.315 39.7657 22.7878 39.9056 22.5451 40.3429C22.3025 40.7802 22.4447 41.3311 22.8631 41.576Z" fill="#86C2EB"/>
<path fill-rule="evenodd" clip-rule="evenodd" d="M20.5372 39.6695C20.9472 39.9144 21.4744 39.7745 21.7171 39.3372C21.9513 38.9087 21.8175 38.3577 21.3991 38.1041C20.9891 37.8592 20.4619 37.9992 20.2193 38.4364C19.985 38.8649 20.1273 39.4159 20.5372 39.6695Z" fill="#86C2EB"/>
<path fill-rule="evenodd" clip-rule="evenodd" d="M25.8423 42.8703C25.3821 42.7391 25.1059 42.2493 25.2315 41.7683C25.357 41.2873 25.8256 40.9988 26.2858 41.1299C26.746 41.2611 27.0221 41.7509 26.8966 42.2319C26.7795 42.7129 26.3025 43.0014 25.8423 42.8703Z" fill="#86C2EB"/>
<path fill-rule="evenodd" clip-rule="evenodd" d="M25.2316 45.2491C24.7128 45.1004 24.4115 44.5495 24.5454 44.0072C24.6877 43.465 25.2148 43.1502 25.7336 43.2901C26.2524 43.4388 26.5536 43.9897 26.4198 44.5319C26.2859 45.0742 25.7504 45.3977 25.2316 45.2491Z" fill="#86C2EB"/>
<path fill-rule="evenodd" clip-rule="evenodd" d="M24.5699 47.8463C23.9926 47.6889 23.6578 47.068 23.8085 46.4646C23.9591 45.8612 24.5532 45.5113 25.1305 45.6687C25.7079 45.8262 26.0426 46.4471 25.892 47.0505C25.733 47.654 25.1389 48.0038 24.5699 47.8463Z" fill="#86C2EB"/>
<path fill-rule="evenodd" clip-rule="evenodd" d="M34.21 50.6099C33.5741 50.7848 32.9298 50.3913 32.7624 49.7354C32.5951 49.0708 32.9716 48.3973 33.5992 48.2225C34.2351 48.0476 34.8794 48.4411 35.0467 49.097C35.2224 49.7529 34.8459 50.4263 34.21 50.6099Z" fill="#86C2EB"/>
<path fill-rule="evenodd" clip-rule="evenodd" d="M29.0474 43.3076C28.5704 43.3076 28.1855 42.9053 28.1855 42.4068C28.1855 41.9084 28.5704 41.5061 29.0474 41.5061C29.5243 41.5061 29.9093 41.9084 29.9093 42.4068C29.9093 42.9053 29.5243 43.3076 29.0474 43.3076Z" fill="#86C2EB"/>
<path fill-rule="evenodd" clip-rule="evenodd" d="M29.0468 45.7738C28.5113 45.7738 28.0762 45.319 28.0762 44.7593C28.0762 44.1996 28.5113 43.7449 29.0468 43.7449C29.5823 43.7449 30.0174 44.1996 30.0174 44.7593C30.0174 45.319 29.5823 45.7738 29.0468 45.7738Z" fill="#86C2EB"/>
<path fill-rule="evenodd" clip-rule="evenodd" d="M29.0472 48.4586C28.4531 48.4586 27.9678 47.9514 27.9678 47.3304C27.9678 46.7095 28.4531 46.2023 29.0472 46.2023C29.6412 46.2023 30.1265 46.7095 30.1265 47.3304C30.1265 47.9601 29.6412 48.4586 29.0472 48.4586Z" fill="#86C2EB"/>
<path fill-rule="evenodd" clip-rule="evenodd" d="M32.2516 42.8703C31.7914 43.0014 31.3228 42.7129 31.1973 42.2319C31.0718 41.7509 31.3479 41.2611 31.8081 41.1299C32.2683 40.9988 32.7369 41.2873 32.8624 41.7683C32.9796 42.2493 32.7118 42.7391 32.2516 42.8703Z" fill="#86C2EB"/>
<path fill-rule="evenodd" clip-rule="evenodd" d="M32.8624 45.249C32.3436 45.3977 31.8165 45.0741 31.6742 44.5319C31.532 43.9897 31.8416 43.4387 32.3604 43.2901C32.8792 43.1414 33.4063 43.465 33.5486 44.0072C33.6825 44.5494 33.3728 45.1003 32.8624 45.249Z" fill="#86C2EB"/>
<path fill-rule="evenodd" clip-rule="evenodd" d="M33.5231 47.8463C32.9457 48.0038 32.36 47.654 32.2011 47.0505C32.0505 46.4471 32.3851 45.8349 32.9625 45.6687C33.5398 45.5113 34.1255 45.8612 34.2845 46.4646C34.4435 47.068 34.1004 47.6889 33.5231 47.8463Z" fill="#86C2EB"/>
<path fill-rule="evenodd" clip-rule="evenodd" d="M29.0466 9.43689C29.6993 9.43689 30.2348 9.98784 30.2348 10.6787C30.2348 11.3609 29.7076 11.9206 29.0466 11.9206C28.3939 11.9206 27.8584 11.3696 27.8584 10.6787C27.8584 9.98784 28.3939 9.43689 29.0466 9.43689Z" fill="#86C2EB"/>
<path fill-rule="evenodd" clip-rule="evenodd" d="M29.0474 17.4476C29.5243 17.4476 29.9093 17.8499 29.9093 18.3484C29.9093 18.8469 29.5243 19.2492 29.0474 19.2492C28.5704 19.2492 28.1855 18.8469 28.1855 18.3484C28.1855 17.8499 28.5704 17.4476 29.0474 17.4476Z" fill="#86C2EB"/>
<path fill-rule="evenodd" clip-rule="evenodd" d="M29.0468 14.9814C29.5823 14.9814 30.0174 15.4362 30.0174 15.9959C30.0174 16.5556 29.5823 17.0104 29.0468 17.0104C28.5113 17.0104 28.0762 16.5556 28.0762 15.9959C28.0762 15.4362 28.5113 14.9814 29.0468 14.9814Z" fill="#86C2EB"/>
<path fill-rule="evenodd" clip-rule="evenodd" d="M29.0472 12.2966C29.6412 12.2966 30.1265 12.8039 30.1265 13.4248C30.1265 14.0457 29.6412 14.5529 29.0472 14.5529C28.4531 14.5529 27.9678 14.0457 27.9678 13.4248C27.9678 12.8039 28.4531 12.2966 29.0472 12.2966Z" fill="#86C2EB"/>
<path fill-rule="evenodd" clip-rule="evenodd" d="M32.2516 17.8849C32.7118 18.0161 32.9879 18.5058 32.8624 18.9868C32.7369 19.4678 32.2683 19.7564 31.8081 19.6252C31.3479 19.494 31.0718 19.0043 31.1973 18.5234C31.3144 18.0424 31.7914 17.7625 32.2516 17.8849Z" fill="#86C2EB"/>
<path fill-rule="evenodd" clip-rule="evenodd" d="M32.8625 15.5062C33.3813 15.6549 33.6825 16.2058 33.5487 16.748C33.4064 17.2903 32.8793 17.6051 32.3605 17.4652C31.8417 17.3164 31.5404 16.7655 31.6743 16.2233C31.8082 15.6811 32.3437 15.3663 32.8625 15.5062Z" fill="#86C2EB"/>
<path fill-rule="evenodd" clip-rule="evenodd" d="M33.5231 12.9088C34.1004 13.0662 34.4351 13.6871 34.2845 14.2905C34.1339 14.894 33.5398 15.2438 32.9625 15.0864C32.3851 14.929 32.0505 14.308 32.2011 13.7046C32.36 13.1099 32.9457 12.7514 33.5231 12.9088Z" fill="#86C2EB"/>
<path fill-rule="evenodd" clip-rule="evenodd" d="M35.2302 19.1792C35.6402 19.4241 35.7824 19.975 35.5481 20.4123C35.3138 20.8408 34.7867 20.9895 34.3683 20.7446C33.9583 20.4998 33.8161 19.9488 34.0503 19.5115C34.293 19.083 34.8202 18.9344 35.2302 19.1792Z" fill="#86C2EB"/>
<path fill-rule="evenodd" clip-rule="evenodd" d="M36.4102 17.0453C35.95 16.7655 35.3559 16.9316 35.0882 17.4126C34.8204 17.8936 34.9794 18.5146 35.4396 18.7944C35.8998 19.0743 36.4939 18.9081 36.7616 18.4271C37.0294 17.9461 36.8704 17.3252 36.4102 17.0453Z" fill="#86C2EB"/>
<path fill-rule="evenodd" clip-rule="evenodd" d="M37.699 14.719C38.2178 15.0339 38.3935 15.716 38.0923 16.2582C37.791 16.8004 37.1384 16.9841 36.6196 16.6693C36.1008 16.3544 35.9251 15.6723 36.2263 15.1301C36.5276 14.5879 37.1802 14.4042 37.699 14.719Z" fill="#86C2EB"/>
<path fill-rule="evenodd" clip-rule="evenodd" d="M43.213 15.5674C43.6732 16.0484 43.6732 16.8355 43.213 17.3165C42.7528 17.7974 41.9997 17.7974 41.5395 17.3165C41.0793 16.8355 41.0793 16.0484 41.5395 15.5674C41.9997 15.0864 42.7528 15.0864 43.213 15.5674Z" fill="#86C2EB"/>
<path fill-rule="evenodd" clip-rule="evenodd" d="M37.791 21.2343C38.1257 21.5841 38.1257 22.1526 37.791 22.5111C37.4564 22.8609 36.9125 22.8609 36.5694 22.5111C36.2347 22.1613 36.2347 21.5928 36.5694 21.2343C36.9125 20.8845 37.4564 20.8845 37.791 21.2343Z" fill="#86C2EB"/>
<path fill-rule="evenodd" clip-rule="evenodd" d="M39.4643 19.494C39.0877 19.1005 38.4685 19.1005 38.092 19.494C37.7154 19.8875 37.7154 20.5347 38.092 20.9283C38.4685 21.3217 39.0877 21.3217 39.4643 20.9283C39.8408 20.5347 39.8408 19.8875 39.4643 19.494Z" fill="#86C2EB"/>
<path fill-rule="evenodd" clip-rule="evenodd" d="M41.28 17.5963C40.8616 17.159 40.1755 17.159 39.7571 17.5963C39.3388 18.0335 39.3388 18.7507 39.7571 19.188C40.1755 19.6252 40.8616 19.6252 41.28 19.188C41.6983 18.7419 41.6983 18.0335 41.28 17.5963Z" fill="#86C2EB"/>
<path fill-rule="evenodd" clip-rule="evenodd" d="M35.231 41.576C34.821 41.8209 34.2938 41.681 34.0512 41.2437C33.8169 40.8152 33.9508 40.2642 34.3691 40.0106C34.7791 39.7657 35.3063 39.9056 35.549 40.3429C35.7832 40.7802 35.641 41.3311 35.231 41.576Z" fill="#86C2EB"/>
<path fill-rule="evenodd" clip-rule="evenodd" d="M36.4102 43.7098C36.8704 43.4299 37.0294 42.8091 36.7616 42.3281C36.4939 41.8471 35.8998 41.6809 35.4396 41.9608C34.9794 42.2406 34.8204 42.8615 35.0882 43.3425C35.3559 43.8235 35.95 43.9897 36.4102 43.7098Z" fill="#86C2EB"/>
<path fill-rule="evenodd" clip-rule="evenodd" d="M37.6991 46.0361C37.1803 46.351 36.5276 46.1585 36.2264 45.625C35.9252 45.0828 36.1093 44.4007 36.6197 44.0859C37.1385 43.7711 37.7912 43.9634 38.0924 44.4969C38.3853 45.0391 38.2095 45.73 37.6991 46.0361Z" fill="#86C2EB"/>
<path fill-rule="evenodd" clip-rule="evenodd" d="M41.28 43.1676C40.8616 43.6049 40.1755 43.6049 39.7571 43.1676C39.3388 42.7304 39.3388 42.0132 39.7571 41.576C40.1755 41.1387 40.8616 41.1387 41.28 41.576C41.6983 42.0132 41.6983 42.7304 41.28 43.1676Z" fill="#86C2EB"/>
<path fill-rule="evenodd" clip-rule="evenodd" d="M14.8807 15.5674C15.3409 15.0864 16.094 15.0864 16.5542 15.5674C17.0144 16.0484 17.0144 16.8355 16.5542 17.3165C16.094 17.7974 15.3409 17.7974 14.8807 17.3165C14.4122 16.8355 14.4122 16.0571 14.8807 15.5674Z" fill="#86C2EB"/>
<path fill-rule="evenodd" clip-rule="evenodd" d="M20.295 21.2343C20.6297 20.8845 21.1735 20.8845 21.5166 21.2343C21.8513 21.5841 21.8513 22.1526 21.5166 22.5111C21.1819 22.8609 20.638 22.8609 20.295 22.5111C19.9603 22.1613 19.9603 21.5841 20.295 21.2343Z" fill="#86C2EB"/>
<path fill-rule="evenodd" clip-rule="evenodd" d="M18.6291 19.494C18.2526 19.8875 18.2526 20.5347 18.6291 20.9283C19.0056 21.3217 19.6248 21.3217 20.0013 20.9283C20.3778 20.5347 20.3778 19.8875 20.0013 19.494C19.6248 19.1005 19.0056 19.1005 18.6291 19.494Z" fill="#86C2EB"/>
<path fill-rule="evenodd" clip-rule="evenodd" d="M16.8138 17.5963C16.3954 18.0336 16.3954 18.7507 16.8138 19.188C17.2322 19.6252 17.9183 19.6252 18.3366 19.188C18.755 18.7507 18.755 18.0336 18.3366 17.5963C17.9183 17.1503 17.2322 17.1503 16.8138 17.5963Z" fill="#86C2EB"/>
<path fill-rule="evenodd" clip-rule="evenodd" d="M43.213 45.1878C43.6732 44.7069 43.6732 43.9197 43.213 43.4387C42.7528 42.9578 41.9997 42.9578 41.5395 43.4387C41.0793 43.9197 41.0793 44.7069 41.5395 45.1878C41.9997 45.6688 42.7528 45.6688 43.213 45.1878Z" fill="#86C2EB"/>
<path fill-rule="evenodd" clip-rule="evenodd" d="M37.791 39.5209C37.4564 39.8707 36.9125 39.8707 36.5694 39.5209C36.2347 39.1711 36.2347 38.6027 36.5694 38.2441C36.9041 37.8942 37.448 37.8942 37.791 38.2441C38.1341 38.6027 38.1341 39.1711 37.791 39.5209Z" fill="#86C2EB"/>
<path fill-rule="evenodd" clip-rule="evenodd" d="M39.4643 41.2611C39.8408 40.8676 39.8408 40.2205 39.4643 39.8269C39.0877 39.4333 38.4685 39.4333 38.092 39.8269C37.7154 40.2205 37.7154 40.8676 38.092 41.2611C38.4685 41.6634 39.0794 41.6634 39.4643 41.2611Z" fill="#86C2EB"/>
<path d="M43.0375 39.1536L43.0207 39.1799C42.9036 39.4072 42.6777 39.5471 42.4099 39.5471C42.0083 39.5471 41.6903 39.2148 41.6903 38.795C41.6903 38.3753 42.0083 38.0429 42.4099 38.0429C42.6777 38.0429 42.9036 38.1829 43.0124 38.4102L43.0291 38.4365L43.2132 38.3228L43.2299 38.3053L43.2216 38.2878C43.0877 37.9817 42.7781 37.7893 42.4183 37.7893C41.8661 37.7893 41.4561 38.2179 41.4561 38.795C41.4561 39.3722 41.8744 39.8007 42.4183 39.8007C42.7697 39.8007 43.0877 39.6171 43.2383 39.3023L43.2467 39.276L43.0709 39.1711L43.0375 39.1536Z" fill="#103B5E"/>
<path d="M43.3467 38.0866H43.991V39.757H44.2336V38.0866H44.8779V37.833H43.3467V38.0866Z" fill="#103B5E"/>
<path d="M45.9574 37.798C45.4135 37.798 44.9951 38.2353 44.9951 38.8037C44.9951 39.3634 45.4218 39.8094 45.9574 39.8094C46.4929 39.8094 46.9196 39.3721 46.9196 38.8037C46.9196 38.2353 46.5013 37.798 45.9574 37.798ZM46.6686 38.7949C46.6686 39.2147 46.359 39.547 45.9574 39.547C45.5557 39.547 45.2377 39.2147 45.2377 38.7949C45.2377 38.3752 45.5557 38.0428 45.9574 38.0428C46.359 38.0428 46.6686 38.3752 46.6686 38.7949Z" fill="#103B5E"/>
<path d="M48.217 38.8737L47.5978 37.8505L47.5895 37.833H47.3301V39.757H47.5727V38.2703L48.1836 39.2672V39.2848H48.2505L48.8613 38.2791V39.757H49.1123V37.833H48.8446L48.217 38.8737Z" fill="#103B5E"/>
<path d="M51.1955 38.174C51.0282 37.9379 50.7688 37.798 50.4676 37.798C49.9321 37.798 49.5137 38.2353 49.5137 38.8037C49.5137 39.3634 49.9321 39.8094 50.4676 39.8094C50.7688 39.8094 51.0282 39.6782 51.1955 39.4333V39.7657H51.4465V37.8417H51.1955V38.174ZM51.1955 38.7949C51.1955 39.2147 50.8859 39.547 50.4843 39.547C50.0827 39.547 49.7647 39.2147 49.7647 38.7949C49.7647 38.3752 50.0827 38.0428 50.4843 38.0428C50.8859 38.0428 51.1955 38.3752 51.1955 38.7949Z" fill="#103B5E"/>
<path d="M51.748 38.0866H52.3923V39.757H52.635V38.0866H53.2793V37.833H51.748V38.0866Z" fill="#103B5E"/>
<path d="M54.3588 37.798C53.8149 37.798 53.3965 38.2353 53.3965 38.8037C53.3965 39.3634 53.8232 39.8094 54.3588 39.8094C54.8943 39.8094 55.321 39.3721 55.321 38.8037C55.321 38.2353 54.8943 37.798 54.3588 37.798ZM55.07 38.7949C55.07 39.2147 54.7604 39.547 54.3588 39.547C53.9571 39.547 53.6391 39.2147 53.6391 38.7949C53.6391 38.3752 53.9571 38.0428 54.3588 38.0428C54.7604 38.0428 55.07 38.3752 55.07 38.7949Z" fill="#103B5E"/>
<path d="M55.8481 38.9437C55.8481 39.1973 55.8063 39.3634 55.7226 39.4422C55.6724 39.4859 55.6054 39.5121 55.5218 39.5121C55.505 39.5121 55.4883 39.5121 55.4632 39.5121H55.4297V39.7307L55.4381 39.757H55.4632C55.4883 39.757 55.5134 39.757 55.5301 39.757C55.5469 39.757 55.5552 39.757 55.5636 39.7482C55.5803 39.7482 55.5887 39.7395 55.6054 39.7395C55.6138 39.7395 55.6138 39.7395 55.6222 39.7395C55.6807 39.7307 55.7393 39.7133 55.7895 39.687C55.8063 39.6783 55.823 39.6695 55.8397 39.6608C55.8481 39.6521 55.8565 39.6521 55.8565 39.6521C55.8648 39.6433 55.8816 39.6345 55.8899 39.6258C56.0238 39.4947 56.0908 39.2672 56.0908 38.9437V38.0866H56.9191V39.757H57.1617V37.833H55.8481V38.9437Z" fill="#103B5E"/>
<path d="M58.5336 37.798C57.9897 37.798 57.5713 38.2353 57.5713 38.8037C57.5713 39.3634 57.9981 39.8094 58.5336 39.8094C59.0691 39.8094 59.4958 39.3721 59.4958 38.8037C59.4958 38.2353 59.0775 37.798 58.5336 37.798ZM59.2532 38.7949C59.2532 39.2147 58.9436 39.547 58.542 39.547C58.1403 39.547 57.8224 39.2147 57.8224 38.7949C57.8224 38.3752 58.1403 38.0428 58.542 38.0428C58.9352 38.0428 59.2532 38.3752 59.2532 38.7949Z" fill="#103B5E"/>
<path d="M59.9062 39.757H60.1573V38.0866H61.086V37.833H59.9062V39.757Z" fill="#103B5E"/>
<path d="M61.6303 39.3022V37.833H61.3877V39.757H61.5885L62.6679 38.2965V39.757H62.9189V37.833H62.7098L61.6303 39.3022Z" fill="#103B5E"/>
<path d="M64.6169 38.8038C64.4579 38.8738 64.2822 38.9087 64.1064 38.9087C63.7801 38.9087 63.6128 38.7688 63.6128 38.4802V37.8418H63.3701V38.4802C63.3701 38.9175 63.6379 39.1623 64.1148 39.1623C64.2989 39.1623 64.4746 39.1274 64.6169 39.0574V39.7658H64.8679V37.8418H64.6169V38.8038Z" fill="#103B5E"/>
<path d="M66.2322 37.798C65.68 37.798 65.2783 38.2177 65.2783 38.8037C65.2783 39.3809 65.6883 39.8094 66.2406 39.8094C66.592 39.8094 66.8849 39.652 67.0439 39.3721L67.0606 39.3459L66.8682 39.2234L66.8431 39.2147L66.8263 39.241C66.7259 39.4421 66.5084 39.5558 66.2406 39.5558C65.8641 39.5558 65.5796 39.3109 65.5294 38.9349H67.1025L67.1276 38.9261V38.8999C67.1276 38.8824 67.1276 38.8737 67.1276 38.8562V38.8474C67.1276 38.8386 67.1276 38.8212 67.1276 38.8124C67.1359 38.3139 66.818 37.798 66.2322 37.798ZM65.5294 38.6812C65.5796 38.3052 65.864 38.0516 66.2239 38.0516C66.5669 38.0516 66.8263 38.3052 66.8765 38.6812H65.5294Z" fill="#103B5E"/>
<path d="M69.0014 39.1535L68.9847 39.1797C68.8675 39.4071 68.6416 39.547 68.3738 39.547C67.9722 39.547 67.6542 39.2147 67.6542 38.7949C67.6542 38.3752 67.9722 38.0428 68.3738 38.0428C68.6416 38.0428 68.8675 38.1828 68.9763 38.4102L68.993 38.4364L69.1771 38.3227L69.1939 38.3052L69.1855 38.279C69.0516 37.9729 68.742 37.7805 68.3822 37.7805C67.8299 37.7805 67.4199 38.209 67.4199 38.7862C67.4199 39.3634 67.8383 39.7919 68.3822 39.7919C68.7336 39.7919 69.0516 39.6083 69.2022 39.2934L69.2106 39.2672L69.0349 39.1622L69.0014 39.1535Z" fill="#103B5E"/>
<path d="M70.951 37.903L71.0179 37.833H70.6665L69.8213 38.6376V37.833H69.5703V39.757H69.8213V38.8912L70.6999 39.7482L70.7083 39.757H71.0514L70.0221 38.76L70.951 37.903Z" fill="#103B5E"/>
<path d="M71.5786 39.3022V37.833H71.3359V39.757H71.5451L72.6161 38.2965V39.757H72.8672V37.833H72.658L71.5786 39.3022Z" fill="#103B5E"/>
<path d="M74.2224 37.798C73.6702 37.798 73.2686 38.2177 73.2686 38.8037C73.2686 39.3809 73.6786 39.8094 74.2308 39.8094C74.5822 39.8094 74.8751 39.652 75.0341 39.3721L75.0508 39.3459L74.8584 39.2234L74.8333 39.2147L74.8165 39.241C74.7161 39.4421 74.4985 39.5558 74.2308 39.5558C73.8543 39.5558 73.5698 39.3109 73.5196 38.9349H75.0926L75.1178 38.9261V38.8999C75.1178 38.8824 75.1178 38.8737 75.1178 38.8562V38.8474C75.1178 38.8386 75.1178 38.8212 75.1178 38.8124C75.1345 38.3139 74.8165 37.798 74.2224 37.798ZM73.5279 38.6812C73.5781 38.3052 73.8626 38.0516 74.2224 38.0516C74.5655 38.0516 74.8249 38.3052 74.8751 38.6812H73.5279Z" fill="#103B5E"/>
<path d="M77.4195 38.8737L76.8 37.8505L76.7916 37.833H76.5322V39.757H76.7748V38.2703L77.3775 39.2672L77.3859 39.2848H77.453L78.0634 38.2791V39.757H78.306V37.833H78.0466L77.4195 38.8737Z" fill="#103B5E"/>
<path d="M80.3983 38.174C80.2312 37.9379 79.9718 37.798 79.6705 37.798C79.1349 37.798 78.7168 38.2353 78.7168 38.8037C78.7168 39.3634 79.1349 39.8094 79.6705 39.8094C79.9718 39.8094 80.2312 39.6782 80.3983 39.4333V39.7657H80.6493V37.8417H80.3983V38.174ZM80.3983 38.7949C80.3983 39.2147 80.0886 39.547 79.6873 39.547C79.2853 39.547 78.9678 39.2147 78.9678 38.7949C78.9678 38.3752 79.2853 38.0428 79.6873 38.0428C80.0802 38.0428 80.3983 38.3752 80.3983 38.7949Z" fill="#103B5E"/>
<path d="M80.9502 38.0866H81.5942V39.757H81.8374V38.0866H82.4814V37.833H80.9502V38.0866Z" fill="#103B5E"/>
<path d="M83.5445 37.798C82.9922 37.798 82.5908 38.2177 82.5908 38.8037C82.5908 39.3809 83.0006 39.8094 83.5529 39.8094C83.9046 39.8094 84.1969 39.652 84.3562 39.3721L84.373 39.3459L84.1801 39.2234L84.1556 39.2147L84.1388 39.241C84.0381 39.4421 83.8207 39.5558 83.5529 39.5558C83.1761 39.5558 82.8915 39.3109 82.8418 38.9349H84.415L84.4395 38.9261V38.8999C84.4395 38.8824 84.4395 38.8737 84.4395 38.8562V38.8474C84.4395 38.8386 84.4395 38.8212 84.4395 38.8124C84.4563 38.3139 84.1388 37.798 83.5445 37.798ZM82.8502 38.6812C82.8999 38.3052 83.1845 38.0516 83.5445 38.0516C83.8878 38.0516 84.1472 38.3052 84.1969 38.6812H82.8502Z" fill="#103B5E"/>
<path d="M85.8289 37.798C85.5275 37.798 85.2681 37.9379 85.101 38.1828V37.8417H84.8584V40.5003H85.101V39.4158C85.2681 39.6607 85.5275 39.8006 85.8289 39.8006C86.3644 39.8006 86.7826 39.3634 86.7826 38.7949C86.7742 38.2352 86.356 37.798 85.8289 37.798ZM86.5315 38.7949C86.5315 39.2147 86.2141 39.547 85.8121 39.547C85.4107 39.547 85.0926 39.2147 85.0926 38.7949C85.0926 38.3752 85.4107 38.0428 85.8121 38.0428C86.2141 38.0428 86.5315 38.3752 86.5315 38.7949Z" fill="#103B5E"/>
<path d="M87.435 39.3022V37.833H87.1924V39.757H87.3931L88.4726 38.2965V39.757H88.7152V37.833H88.5145L87.435 39.3022Z" fill="#103B5E"/>
<path d="M90.8072 38.174C90.6394 37.9379 90.38 37.798 90.0793 37.798C89.5438 37.798 89.125 38.2353 89.125 38.8037C89.125 39.3634 89.5438 39.8094 90.0793 39.8094C90.38 39.8094 90.6394 39.6782 90.8072 39.4333V39.7657H91.0582V37.8417H90.8072V38.174ZM90.8072 38.7949C90.8072 39.2147 90.4975 39.547 90.0961 39.547C89.6941 39.547 89.376 39.2147 89.376 38.7949C89.376 38.3752 89.6941 38.0428 90.0961 38.0428C90.4891 38.0428 90.8072 38.3752 90.8072 38.7949Z" fill="#103B5E"/>
<path d="M91.7775 38.9437C91.7775 39.1973 91.7356 39.3634 91.6523 39.4422C91.602 39.4859 91.5349 39.5121 91.451 39.5121C91.4342 39.5121 91.4174 39.5121 91.3929 39.5121H91.3594V39.7307L91.3678 39.757H91.3929C91.4174 39.757 91.4426 39.757 91.4594 39.757C91.4762 39.757 91.4846 39.757 91.4929 39.7482C91.5097 39.7482 91.5181 39.7395 91.5349 39.7395C91.5433 39.7395 91.5433 39.7395 91.5517 39.7395C91.6104 39.7307 91.6685 39.7133 91.7188 39.687C91.7356 39.6783 91.7523 39.6695 91.7691 39.6608C91.7775 39.6521 91.7859 39.6521 91.7859 39.6521C91.7943 39.6433 91.8111 39.6345 91.8194 39.6258C91.953 39.4947 92.0201 39.2672 92.0201 38.9437V38.0866H92.8486V39.757H93.0912V37.833H91.7775V38.9437Z" fill="#103B5E"/>
<path d="M95.4174 37.833H95.1748V39.757H95.4174V37.833Z" fill="#103B5E"/>
<path d="M94.3554 38.5589H93.8618V37.8418H93.6191V39.7658H94.3554C94.707 39.7658 94.9748 39.5034 94.9748 39.1623C94.9748 38.8126 94.707 38.5589 94.3554 38.5589ZM94.7238 39.1536C94.7238 39.3548 94.5644 39.5034 94.3554 39.5034H93.8618V38.8038H94.3554C94.5728 38.8038 94.7238 38.9524 94.7238 39.1536Z" fill="#103B5E"/>
</g>
<defs>
<clipPath id="clip0_204_676">
<rect width="83.8835" height="41.9417" fill="white" transform="translate(11.5342 9.43689)"/>
</clipPath>
</defs>
</svg>
