<svg width="24" height="24" viewBox="0 0 24 24" fill="none" xmlns="http://www.w3.org/2000/svg">
<path fill-rule="evenodd" clip-rule="evenodd" d="M1.75 0C1.29725 0 0.862999 0.17975 0.542999 0.5C0.528499 0.51425 0.51425 0.528499 0.5 0.542999C0.17975 0.862999 0 1.29725 0 1.75C0 1.9455 0.0170025 2.14049 0.0510025 2.33299C0.297503 3.72899 1.5075 9.4961 1.5075 9.4961C1.545 9.7076 1.71325 9.8716 1.92575 9.9036L8.6295 12L1.92575 14.0964C1.71325 14.1284 1.545 14.2924 1.5075 14.5039C1.5075 14.5039 0.297503 20.271 0.0510025 21.667C0.0170025 21.8595 0 22.0545 0 22.25C0 22.7028 0.17975 23.137 0.5 23.457C0.51425 23.4715 0.528499 23.4858 0.542999 23.5C0.862999 23.8203 1.29725 24 1.75 24C1.9905 24 2.228 23.9452 2.444 23.8395C4.43175 22.869 19.0283 15.7403 22.821 13.888C23.5425 13.5358 24 12.8028 24 12C24 11.1973 23.5425 10.4642 22.821 10.112C19.0283 8.25975 4.43175 1.13101 2.444 0.160507C2.228 0.0547572 1.9905 0 1.75 0Z" fill="#2D8DCD"/>
</svg>
