<svg width="16" height="16" viewBox="0 0 16 16" fill="none" xmlns="http://www.w3.org/2000/svg">
<g clip-path="url(#clip0_173_5844)">
<path d="M12.1561 15.7737L15.7811 12.1487C15.9217 12.0079 16.0006 11.8169 16.0005 11.6178C16.0003 11.4187 15.921 11.2278 15.7801 11.0872C15.6392 10.9465 15.4482 10.8676 15.2492 10.8678C15.0501 10.868 14.8592 10.9472 14.7186 11.0881L12.3667 13.4406C12.3663 13.4411 12.3657 13.4413 12.3651 13.4415C12.3645 13.4416 12.3639 13.4415 12.3633 13.4413C12.3628 13.441 12.3623 13.4407 12.3619 13.4401C12.3616 13.4396 12.3614 13.439 12.3614 13.4384V0.75C12.3614 0.551088 12.2824 0.360322 12.1417 0.21967C12.0011 0.0790176 11.8103 0 11.6114 0C11.4125 0 11.2217 0.0790176 11.0811 0.21967C10.9404 0.360322 10.8614 0.551088 10.8614 0.75V13.4375C10.8614 13.4381 10.8612 13.4387 10.8609 13.4392C10.8605 13.4397 10.86 13.4401 10.8595 13.4403C10.8589 13.4406 10.8583 13.4406 10.8577 13.4405C10.8571 13.4404 10.8565 13.4401 10.8561 13.4397L8.52077 11.1044C8.20827 10.7919 7.69733 10.7947 7.40733 11.1306C7.28382 11.274 7.21909 11.4588 7.2261 11.6479C7.23311 11.837 7.31136 12.0165 7.44514 12.1503L11.0661 15.7737C11.1376 15.8453 11.2226 15.9021 11.3161 15.9409C11.4096 15.9796 11.5099 15.9995 11.6111 15.9995C11.7123 15.9995 11.8125 15.9796 11.906 15.9409C11.9996 15.9021 12.0845 15.8453 12.1561 15.7737Z" fill="#2D8DCD"/>
<path d="M5.13562 15.2498V2.5623C5.13563 2.56168 5.13582 2.56109 5.13616 2.56058C5.13651 2.56008 5.13699 2.55968 5.13756 2.55945C5.13812 2.55922 5.13874 2.55916 5.13934 2.55927C5.13994 2.55939 5.1405 2.55968 5.14093 2.56011L7.49375 4.91292C7.63439 5.05361 7.82517 5.13267 8.02411 5.13269C8.22304 5.13272 8.41384 5.05373 8.55453 4.91308C8.69522 4.77243 8.77427 4.58165 8.7743 4.38272C8.77433 4.18378 8.69533 3.99299 8.55468 3.8523L4.92968 0.227296C4.85812 0.155664 4.77313 0.098839 4.67959 0.0600687C4.58605 0.0212983 4.48579 0.00134277 4.38453 0.00134277C4.28327 0.00134277 4.18301 0.0212983 4.08946 0.0600687C3.99592 0.098839 3.91094 0.155664 3.83937 0.227296L0.218747 3.84855C0.0849181 3.98235 0.00661824 4.1618 -0.000452426 4.35091C-0.00752309 4.54002 0.0571582 4.72481 0.180622 4.86823C0.470622 5.20417 0.980622 5.20792 1.29437 4.89448L3.63031 2.55917C3.63075 2.55874 3.6313 2.55845 3.6319 2.55834C3.6325 2.55822 3.63312 2.55828 3.63369 2.55851C3.63425 2.55875 3.63474 2.55914 3.63508 2.55965C3.63543 2.56015 3.63561 2.56075 3.63562 2.56136V15.2498C3.63562 15.4487 3.71464 15.6395 3.85529 15.7801C3.99594 15.9208 4.18671 15.9998 4.38562 15.9998C4.58453 15.9998 4.7753 15.9208 4.91595 15.7801C5.0566 15.6395 5.13562 15.4487 5.13562 15.2498Z" fill="#292D32"/>
</g>
<defs>
<clipPath id="clip0_173_5844">
<rect width="16" height="16" fill="white"/>
</clipPath>
</defs>
</svg>
