<svg width="16" height="16" viewBox="0 0 16 16" fill="none" xmlns="//www.w3.org/2000/svg">
<path d="M7.74437 1.05153C7.79366 1.01801 7.85201 1.00005 7.91176 1C7.97152 1.00005 8.02987 1.01801 8.07915 1.05153C8.12844 1.08505 8.16637 1.13257 8.18796 1.18784L10.016 5.86323L15.042 6.11771C15.1018 6.12071 15.1594 6.14163 15.207 6.17769C15.2546 6.21376 15.2901 6.26329 15.3087 6.31975C15.3274 6.37622 15.3284 6.43698 15.3116 6.49402C15.2948 6.55106 15.261 6.60171 15.2146 6.6393L11.3009 9.81367L12.5863 14.6304C12.6017 14.6877 12.5992 14.7483 12.5792 14.8042C12.5592 14.8601 12.5226 14.9087 12.4743 14.9437C12.4259 14.9786 12.3681 14.9982 12.3083 14.9999C12.2485 15.0016 12.1896 14.9853 12.1393 14.9532L7.91176 12.2614L3.68422 14.9532C3.63393 14.9853 3.57503 15.0016 3.51525 14.9999C3.45548 14.9982 3.39761 14.9786 3.34927 14.9437C3.30092 14.9087 3.26435 14.8601 3.24435 14.8042C3.22435 14.7483 3.22186 14.6877 3.2372 14.6304L4.52267 9.81367L0.608953 6.6393C0.562555 6.60171 0.528724 6.55106 0.511914 6.49402C0.495103 6.43698 0.496103 6.37622 0.514783 6.31975C0.533463 6.26329 0.568947 6.21376 0.616559 6.17769C0.664171 6.14163 0.721679 6.12071 0.781507 6.11771L5.80755 5.86323L7.63556 1.18784C7.65716 1.13257 7.69509 1.08505 7.74437 1.05153Z" fill="#FEBD18"/>
</svg>
